<svg width="87" height="16" viewBox="0 0 87 16" fill="none" xmlns="http://www.w3.org/2000/svg">
<path d="M0.288251 14.748C0.456251 14.916 0.743251 15 1.14925 15H2.80825C3.21425 15 3.50125 14.916 3.66925 14.748C3.83725 14.58 3.92125 14.314 3.92125 13.95V7.12497L5.93725 11.682C6.09125 12.032 6.25225 12.284 6.42025 12.438C6.58825 12.578 6.86125 12.648 7.23925 12.648C7.63125 12.648 7.91125 12.578 8.07925 12.438C8.24725 12.284 8.40125 12.032 8.54125 11.682L10.5783 7.12497V13.95C10.5783 14.314 10.6623 14.58 10.8303 14.748C10.9983 14.916 11.2853 15 11.6913 15H13.3503C13.7563 15 14.0363 14.916 14.1903 14.748C14.3583 14.58 14.4423 14.314 14.4423 13.95V1.76997C14.4423 1.40597 14.3583 1.13997 14.1903 0.97197C14.0223 0.80397 13.7353 0.719971 13.3293 0.719971H11.3343C11.0543 0.719971 10.8303 0.75497 10.6623 0.82497C10.5083 0.89497 10.3893 1.03497 10.3053 1.24497L7.23925 8.59497L4.19425 1.24497C4.11025 1.03497 3.98425 0.89497 3.81625 0.82497C3.66225 0.75497 3.44525 0.719971 3.16525 0.719971H1.17025C0.764251 0.719971 0.477251 0.80397 0.309251 0.97197C0.141251 1.13997 0.057251 1.40597 0.057251 1.76997V13.95C0.057251 14.314 0.134251 14.58 0.288251 14.748Z" fill="white"/>
<path d="M16.6364 3.47097C16.8884 3.72297 17.2524 3.84897 17.7284 3.84897H19.2404C19.7304 3.84897 20.1014 3.72297 20.3534 3.47097C20.6054 3.20497 20.7314 2.89697 20.7314 2.54697V2.04297C20.7314 1.67897 20.6054 1.37097 20.3534 1.11897C20.1014 0.85297 19.7304 0.719971 19.2404 0.719971H17.7284C17.2524 0.719971 16.8884 0.85297 16.6364 1.11897C16.3844 1.37097 16.2584 1.67897 16.2584 2.04297V2.54697C16.2584 2.89697 16.3844 3.20497 16.6364 3.47097Z" fill="white"/>
<path d="M16.6154 14.748C16.7834 14.916 17.0704 15 17.4764 15H19.4924C19.8984 15 20.1854 14.916 20.3534 14.748C20.5354 14.58 20.6264 14.314 20.6264 13.95V5.99097C20.6264 5.62697 20.5354 5.36097 20.3534 5.19297C20.1854 5.01097 19.8984 4.91997 19.4924 4.91997H17.4764C17.0704 4.91997 16.7834 5.01097 16.6154 5.19297C16.4474 5.36097 16.3634 5.62697 16.3634 5.99097V13.95C16.3634 14.314 16.4474 14.58 16.6154 14.748Z" fill="white"/>
<path fill-rule="evenodd" clip-rule="evenodd" d="M23.6888 13.95C24.7388 14.86 26.3068 15.315 28.3928 15.315C29.4708 15.315 30.4928 15.175 31.4588 14.895C32.4248 14.615 33.2088 14.258 33.8108 13.824V1.79097C33.8108 1.42697 33.7268 1.16097 33.5588 0.992969C33.3908 0.81097 33.1038 0.719971 32.6978 0.719971H30.7448C30.3388 0.719971 30.0518 0.81097 29.8838 0.992969C29.7158 1.16097 29.6318 1.42697 29.6318 1.79097V5.17197C29.3798 5.00397 29.0368 4.87097 28.6028 4.77297C28.1688 4.66097 27.7208 4.60497 27.2588 4.60497C25.6208 4.60497 24.3538 5.08797 23.4578 6.05397C22.5618 7.00597 22.1138 8.28697 22.1138 9.89697C22.1138 11.689 22.6388 13.04 23.6888 13.95ZM29.6528 12.228C29.3728 12.382 28.9948 12.459 28.5188 12.459C27.7908 12.459 27.2448 12.263 26.8808 11.871C26.5168 11.479 26.3348 10.828 26.3348 9.91797C26.3348 9.16197 26.4818 8.56697 26.7758 8.13297C27.0838 7.68497 27.5458 7.46097 28.1618 7.46097C29.1558 7.46097 29.6528 7.92297 29.6528 8.84697V12.228Z" fill="white"/>
<path fill-rule="evenodd" clip-rule="evenodd" d="M35.8488 14.748C36.0168 14.916 36.3038 15 36.7098 15H42.9048C44.6268 15 45.9288 14.594 46.8108 13.782C47.7068 12.97 48.1548 11.927 48.1548 10.653C48.1548 9.07097 47.4618 8.05597 46.0758 7.60797C46.5798 7.39797 46.9858 7.04097 47.2938 6.53697C47.6158 6.01897 47.7768 5.44497 47.7768 4.81497C47.7768 3.52697 47.3848 2.52597 46.6008 1.81197C45.8168 1.08397 44.6058 0.719971 42.9678 0.719971H36.7098C36.3178 0.719971 36.0378 0.81097 35.8698 0.992969C35.7018 1.16097 35.6178 1.42697 35.6178 1.79097V13.95C35.6178 14.314 35.6948 14.58 35.8488 14.748ZM43.1778 5.99097C42.9398 6.20097 42.6038 6.30597 42.1698 6.30597H39.8598V3.76497H42.1698C42.6318 3.76497 42.9748 3.86297 43.1988 4.05897C43.4228 4.25497 43.5348 4.57697 43.5348 5.02497C43.5348 5.44497 43.4158 5.76697 43.1778 5.99097ZM43.5558 11.577C43.3178 11.829 42.9748 11.955 42.5268 11.955H39.8598V9.11997H42.4428C42.9048 9.11997 43.2688 9.23897 43.5348 9.47697C43.8008 9.71497 43.9338 10.072 43.9338 10.548C43.9338 10.968 43.8078 11.311 43.5558 11.577Z" fill="white"/>
<path fill-rule="evenodd" clip-rule="evenodd" d="M50.2986 14.055C51.0966 14.895 52.1536 15.315 53.4696 15.315C54.2816 15.315 54.9676 15.21 55.5276 15C56.1016 14.804 56.5916 14.489 56.9976 14.055L57.2706 14.685C57.3266 14.797 57.3966 14.881 57.4806 14.937C57.5646 14.979 57.6836 15 57.8376 15H59.9796C60.2736 15 60.4696 14.958 60.5676 14.874C60.6656 14.79 60.7146 14.615 60.7146 14.349V5.94897C60.0286 5.51497 59.2726 5.18597 58.4466 4.96197C57.6346 4.72397 56.6966 4.60497 55.6326 4.60497C54.3446 4.60497 53.2036 4.84997 52.2096 5.33997C51.2296 5.81597 50.4666 6.49497 49.9206 7.37697C49.3886 8.25897 49.1226 9.28797 49.1226 10.464C49.1226 12.004 49.5146 13.201 50.2986 14.055ZM56.3256 12.06C56.0176 12.326 55.5906 12.459 55.0446 12.459C53.9106 12.459 53.3436 11.78 53.3436 10.422C53.3436 9.48397 53.5606 8.75597 53.9946 8.23797C54.4426 7.71997 55.0376 7.46097 55.7796 7.46097C56.1856 7.46097 56.5216 7.52397 56.7876 7.64997V10.926C56.7876 11.416 56.6336 11.794 56.3256 12.06Z" fill="white"/>
<path d="M62.776 14.748C62.944 14.916 63.231 15 63.637 15H65.674C66.08 15 66.36 14.916 66.514 14.748C66.682 14.58 66.766 14.314 66.766 13.95V8.74197C66.766 8.34997 66.885 8.04197 67.123 7.81797C67.375 7.59397 67.711 7.48197 68.1311 7.48197C68.523 7.48197 68.8101 7.57297 68.9921 7.75497C69.174 7.93697 69.265 8.23797 69.265 8.65797V13.95C69.265 14.314 69.349 14.58 69.5171 14.748C69.6991 14.916 69.993 15 70.399 15H72.4361C72.842 15 73.122 14.916 73.276 14.748C73.444 14.58 73.528 14.314 73.528 13.95V8.38497C73.528 7.13897 73.178 6.20097 72.4781 5.57097C71.778 4.92697 70.861 4.60497 69.7271 4.60497C68.943 4.60497 68.229 4.72397 67.585 4.96197C66.955 5.18597 66.444 5.49397 66.052 5.88597L65.947 5.25597C65.933 5.12997 65.877 5.04597 65.779 5.00397C65.695 4.94797 65.569 4.91997 65.401 4.91997H63.238C62.944 4.91997 62.748 4.96897 62.65 5.06697C62.566 5.15097 62.524 5.31897 62.524 5.57097V13.95C62.524 14.314 62.608 14.58 62.776 14.748Z" fill="white"/>
<path d="M86.7679 14.58C86.7679 14.44 86.7189 14.314 86.6209 14.202L82.9249 9.83397L86.5159 5.71797C86.6139 5.60597 86.6629 5.47997 86.6629 5.33997C86.6629 5.21397 86.6209 5.11597 86.5369 5.04597C86.4669 4.96197 86.3619 4.91997 86.2219 4.91997H82.9669C82.7709 4.91997 82.6239 4.94097 82.5259 4.98297C82.4279 5.02497 82.3369 5.10197 82.2529 5.21397L79.4809 8.82597V1.79097C79.4809 1.42697 79.3969 1.16097 79.2289 0.992969C79.0609 0.81097 78.7739 0.719971 78.3679 0.719971H76.3309C75.9389 0.719971 75.6589 0.81097 75.4909 0.992969C75.3229 1.16097 75.2389 1.42697 75.2389 1.79097V13.95C75.2389 14.314 75.3159 14.58 75.4699 14.748C75.6379 14.916 75.9249 15 76.3309 15H78.3679C78.7739 15 79.0609 14.916 79.2289 14.748C79.3969 14.58 79.4809 14.314 79.4809 13.95V10.842L82.3369 14.727C82.4349 14.839 82.5259 14.916 82.6099 14.958C82.7079 14.986 82.8549 15 83.0509 15H86.3059C86.4459 15 86.5579 14.965 86.6419 14.895C86.7259 14.811 86.7679 14.706 86.7679 14.58Z" fill="white"/>
</svg>
