<svg width="150" height="150" viewBox="0 0 150 150" fill="none" xmlns="http://www.w3.org/2000/svg">
<g filter="url(#filter0_b_2_32)">
<rect width="150" height="150" rx="18" fill="#756CCF" fill-opacity="0.1"/>
<rect x="0.5" y="0.5" width="149" height="149" rx="17.5" stroke="#F0EEFF" stroke-opacity="0.1"/>
</g>
<path d="M116.955 76.594C118.637 76.594 120 75.2309 120 73.5494C120 71.868 118.637 70.5049 116.955 70.5049C115.274 70.5049 113.911 71.868 113.911 73.5494C113.911 75.2309 115.274 76.594 116.955 76.594Z" fill="#869DDA"/>
<path d="M112.277 66.4951C113.425 66.4951 114.356 65.5642 114.356 64.4159C114.356 63.2676 113.425 62.3367 112.277 62.3367C111.129 62.3367 110.198 63.2676 110.198 64.4159C110.198 65.5642 111.129 66.4951 112.277 66.4951Z" fill="#FD60A4"/>
<path d="M32.0792 56.2475C33.2275 56.2475 34.1584 55.3166 34.1584 54.1683C34.1584 53.02 33.2275 52.0891 32.0792 52.0891C30.9309 52.0891 30 53.02 30 54.1683C30 55.3166 30.9309 56.2475 32.0792 56.2475Z" fill="#869DDA"/>
<path d="M35.9406 101.47C38.0732 101.47 39.802 99.7415 39.802 97.6089C39.802 95.4764 38.0732 93.7476 35.9406 93.7476C33.808 93.7476 32.0792 95.4764 32.0792 97.6089C32.0792 99.7415 33.808 101.47 35.9406 101.47Z" fill="#FD60A4"/>
<path d="M102.19 93.4278H42.463C38.829 93.4278 35.9405 90.5392 35.9405 86.9053V52.5225C35.9405 48.8885 38.829 46 42.463 46H102.19C105.824 46 108.713 48.8885 108.713 52.5225V86.9053C108.713 90.5392 105.824 93.4278 102.19 93.4278Z" fill="url(#paint0_linear_2_32)"/>
<path d="M54.3898 82.7122H44.8856C44.047 82.7122 43.3948 82.0599 43.3948 81.2213C43.3948 80.3827 44.047 79.7305 44.8856 79.7305H54.3898C55.2284 79.7305 55.8807 80.3827 55.8807 81.2213C55.8807 82.0599 55.2284 82.7122 54.3898 82.7122Z" fill="#2D2D74"/>
<path d="M69.7642 82.7122H60.26C59.4214 82.7122 58.7692 82.0599 58.7692 81.2213C58.7692 80.3827 59.4214 79.7305 60.26 79.7305H69.7642C70.6028 79.7305 71.2551 80.3827 71.2551 81.2213C71.2551 82.0599 70.6028 82.7122 69.7642 82.7122Z" fill="#2D2D74"/>
<path d="M85.1386 82.7122H75.6345C74.7959 82.7122 74.1436 82.0599 74.1436 81.2213C74.1436 80.3827 74.7959 79.7305 75.6345 79.7305H85.1386C85.9773 79.7305 86.6295 80.3827 86.6295 81.2213C86.6295 82.0599 85.9773 82.7122 85.1386 82.7122Z" fill="#2D2D74"/>
<path d="M100.513 82.7122H91.0089C90.1703 82.7122 89.518 82.0599 89.518 81.2213C89.518 80.3827 90.1703 79.7305 91.0089 79.7305H100.513C101.352 79.7305 102.004 80.3827 102.004 81.2213C102.004 82.0599 101.352 82.7122 100.513 82.7122Z" fill="#2D2D74"/>
<path opacity="0.8" d="M97.0655 64.8221C100.153 64.8221 102.656 62.3191 102.656 59.2314C102.656 56.1438 100.153 53.6407 97.0655 53.6407C93.9779 53.6407 91.4748 56.1438 91.4748 59.2314C91.4748 62.3191 93.9779 64.8221 97.0655 64.8221Z" fill="#090D1C"/>
<path opacity="0.5" d="M89.7043 64.8221C92.792 64.8221 95.295 62.3191 95.295 59.2314C95.295 56.1438 92.792 53.6407 89.7043 53.6407C86.6167 53.6407 84.1136 56.1438 84.1136 59.2314C84.1136 62.3191 86.6167 64.8221 89.7043 64.8221Z" fill="#090D1C"/>
<path d="M55.2284 66.5924H44.7924C44.047 66.5924 43.3948 65.9402 43.3948 65.1948V58.4859C43.3948 57.7405 44.047 57.0883 44.7924 57.0883H55.1352C55.8807 57.0883 56.5329 57.7405 56.5329 58.4859V65.1948C56.6261 65.9402 55.9738 66.5924 55.2284 66.5924Z" fill="#292B64"/>
<path d="M113.595 93.4317C113.306 94.6531 112.874 95.9463 112.37 97.024C111 99.6823 108.838 101.766 106.171 103.131C103.433 104.496 100.189 105.071 96.946 104.352C89.3063 102.772 84.4054 95.2997 85.991 87.6841C87.5766 80.0685 95.0001 75.1111 102.64 76.7636C105.378 77.3383 107.757 78.7034 109.775 80.5714C113.162 83.9481 114.604 88.8336 113.595 93.4317Z" fill="url(#paint1_linear_2_32)"/>
<path d="M104.861 89.7694H101.52V86.4278C101.52 85.7595 101 85.1654 100.257 85.1654C99.5891 85.1654 98.995 85.6852 98.995 86.4278V89.7694H95.6535C94.9851 89.7694 94.3911 90.2892 94.3911 91.0317C94.3911 91.7743 94.9109 92.2941 95.6535 92.2941H98.995V95.6357C98.995 96.304 99.5148 96.8981 100.257 96.8981C100.926 96.8981 101.52 96.3783 101.52 95.6357V92.2941H104.861C105.53 92.2941 106.124 91.7743 106.124 91.0317C106.124 90.2892 105.53 89.7694 104.861 89.7694Z" fill="#161939"/>
<defs>
<filter id="filter0_b_2_32" x="-11" y="-11" width="172" height="172" filterUnits="userSpaceOnUse" color-interpolation-filters="sRGB">
<feFlood flood-opacity="0" result="BackgroundImageFix"/>
<feGaussianBlur in="BackgroundImage" stdDeviation="5.5"/>
<feComposite in2="SourceAlpha" operator="in" result="effect1_backgroundBlur_2_32"/>
<feBlend mode="normal" in="SourceGraphic" in2="effect1_backgroundBlur_2_32" result="shape"/>
</filter>
<linearGradient id="paint0_linear_2_32" x1="72.3266" y1="46" x2="72.3266" y2="93.4278" gradientUnits="userSpaceOnUse">
<stop stop-color="#4261E8"/>
<stop offset="1" stop-color="#7F98FE"/>
</linearGradient>
<linearGradient id="paint1_linear_2_32" x1="99.802" y1="76.4456" x2="99.802" y2="104.663" gradientUnits="userSpaceOnUse">
<stop stop-color="#4261E8"/>
<stop offset="1" stop-color="#7F98FE"/>
</linearGradient>
</defs>
</svg>
