<svg width="150" height="150" viewBox="0 0 150 150" fill="none" xmlns="http://www.w3.org/2000/svg">
<g filter="url(#filter0_b_2_57)">
<rect width="150" height="150" rx="18" fill="#756CCF" fill-opacity="0.1"/>
<rect x="0.5" y="0.5" width="149" height="149" rx="17.5" stroke="#F0EEFF" stroke-opacity="0.1"/>
</g>
<path fill-rule="evenodd" clip-rule="evenodd" d="M50.9777 41.4052C47.664 41.4052 44.9777 44.0914 44.9777 47.4051V107.309C44.9777 110.623 47.6639 113.309 50.9777 113.309H79.5055C82.8192 113.309 85.5055 110.623 85.5055 107.309V47.4052C85.5055 44.0914 82.8192 41.4052 79.5055 41.4052H50.9777ZM83.5445 48.5957H46.9387V102.197H83.5445V48.5957ZM60.6659 107.753C60.6659 106.49 61.6902 105.465 62.9538 105.465H67.5295C68.793 105.465 69.8173 106.49 69.8173 107.753C69.8173 109.017 68.793 110.041 67.5295 110.041H62.9538C61.6902 110.041 60.6659 109.017 60.6659 107.753ZM71.1247 44.0199H59.3585C59.3585 45.103 60.2365 45.981 61.3196 45.981H69.1636C70.2467 45.981 71.1247 45.103 71.1247 44.0199Z" fill="url(#paint0_linear_2_57)"/>
<rect x="46.9387" y="48.5956" width="36.6058" height="53.6013" fill="url(#paint1_linear_2_57)" fill-opacity="0.1"/>
<path d="M72.0834 82.7479C72.3158 82.0158 72.432 81.243 72.432 80.4295C72.432 78.9653 72.0543 77.7553 71.299 76.7994C70.5436 75.8436 69.505 75.0708 68.1831 74.4811L64.065 72.6508C63.4839 72.3864 62.9973 72.1322 62.6051 71.8882C62.2129 71.6441 61.8933 71.3899 61.6464 71.1256C61.414 70.8408 61.2469 70.5358 61.1452 70.2104C61.0435 69.8647 60.9927 69.458 60.9927 68.9902C60.9927 68.2988 61.2614 67.6988 61.7989 67.1904C62.3509 66.6617 63.1716 66.3973 64.2611 66.3973C65.5829 66.3973 66.7596 66.6617 67.7909 67.1904C68.8223 67.6988 69.7519 68.4513 70.5799 69.4478L71.6694 67.6175C71.0157 66.7634 70.2022 66.0516 69.229 65.4822C68.2557 64.9127 67.2171 64.5162 66.1131 64.2925V61.6691H63.7163V64.14C62.6414 64.1806 61.719 64.3738 60.9491 64.7195C60.1792 65.0449 59.5474 65.472 59.0535 66.0007C58.5596 66.5295 58.1964 67.1294 57.964 67.8005C57.7316 68.4716 57.6154 69.1732 57.6154 69.9054C57.6154 71.3696 57.964 72.5796 58.6613 73.5354C59.3585 74.4709 60.3899 75.2437 61.7553 75.8538L65.8953 77.6841C67.0428 78.1925 67.8563 78.7213 68.3356 79.2703C68.815 79.8194 69.0547 80.5109 69.0547 81.3447C69.0547 82.2598 68.7496 83.0021 68.1395 83.5715C67.5294 84.1206 66.4908 84.3951 65.0237 84.3951C63.7018 84.3951 62.4889 84.1409 61.3849 83.6325C60.2809 83.1038 59.3149 82.3412 58.4869 81.3447L57.3975 83.175C58.0947 84.0901 58.9954 84.8527 60.0993 85.4628C61.2179 86.0526 62.4235 86.4288 63.7163 86.5915V89.1234H66.1131V86.622C67.2607 86.5406 68.234 86.3271 69.0329 85.9814C69.8464 85.6357 70.5 85.1883 70.9939 84.6392C71.5023 84.0901 71.8655 83.4597 72.0834 82.7479Z" fill="url(#paint2_linear_2_57)"/>
<path d="M107.62 56.1186C109.615 56.1186 111.232 54.5013 111.232 52.5063C111.232 50.5113 109.615 48.894 107.62 48.894C105.625 48.894 104.007 50.5113 104.007 52.5063C104.007 54.5013 105.625 56.1186 107.62 56.1186Z" fill="#FD60A4"/>
<path d="M112.906 41.9338C114.268 41.9338 115.373 40.8293 115.373 39.4669C115.373 38.1045 114.268 37 112.906 37C111.543 37 110.439 38.1045 110.439 39.4669C110.439 40.8293 111.543 41.9338 112.906 41.9338Z" fill="#869DDA"/>
<path d="M40.3963 67.484C41.7587 67.484 42.8632 66.3795 42.8632 65.0171C42.8632 63.6546 41.7587 62.5502 40.3963 62.5502C39.0338 62.5502 37.9294 63.6546 37.9294 65.0171C37.9294 66.3795 39.0338 67.484 40.3963 67.484Z" fill="#FD60A4"/>
<path d="M34.5814 104.311C37.1116 104.311 39.1628 102.26 39.1628 99.73C39.1628 97.1997 37.1116 95.1486 34.5814 95.1486C32.0512 95.1486 30 97.1997 30 99.73C30 102.26 32.0512 104.311 34.5814 104.311Z" fill="#FD60A4"/>
<path d="M119.613 83.3803C119.261 84.878 118.732 86.4639 118.116 87.7855C116.442 91.0453 113.799 93.6003 110.539 95.2743C107.191 96.9483 103.226 97.6531 99.2615 96.7721C89.9224 94.8338 83.9314 85.671 85.8697 76.332C87.8079 66.9929 96.8826 60.9138 106.222 62.9402C109.57 63.645 112.477 65.319 114.944 67.6097C119.085 71.7505 120.847 77.7416 119.613 83.3803Z" fill="url(#paint3_linear_2_57)"/>
<path d="M98.1693 84.458L96.5042 85.8001C96.1938 86.0317 95.7884 85.8666 95.6934 85.47L95.1376 81.6194" fill="#090A1F"/>
<path d="M114.082 74.7258L113.012 75.7158L101.816 86.1535C101.306 86.6426 100.517 86.6218 99.9905 86.1711L95.968 82.4689L95.1612 81.7186L92.9364 79.6304C92.4597 79.1679 92.6772 78.3296 93.3318 78.2253L111.735 75.1829L114.082 74.7258Z" fill="#161939"/>
<path d="M114.083 74.7259L113.013 75.7158L96.006 82.4076L95.1497 81.6691L111.773 75.1215L114.083 74.7259Z" fill="#090B1F"/>
<defs>
<filter id="filter0_b_2_57" x="-11" y="-11" width="172" height="172" filterUnits="userSpaceOnUse" color-interpolation-filters="sRGB">
<feFlood flood-opacity="0" result="BackgroundImageFix"/>
<feGaussianBlur in="BackgroundImage" stdDeviation="5.5"/>
<feComposite in2="SourceAlpha" operator="in" result="effect1_backgroundBlur_2_57"/>
<feBlend mode="normal" in="SourceGraphic" in2="effect1_backgroundBlur_2_57" result="shape"/>
</filter>
<linearGradient id="paint0_linear_2_57" x1="65.2416" y1="41.4052" x2="65.2416" y2="113.309" gradientUnits="userSpaceOnUse">
<stop stop-color="#4261E8"/>
<stop offset="1" stop-color="#7F98FE"/>
</linearGradient>
<linearGradient id="paint1_linear_2_57" x1="65.2416" y1="48.5956" x2="65.2416" y2="102.197" gradientUnits="userSpaceOnUse">
<stop stop-color="#4261E8"/>
<stop offset="1" stop-color="#7F98FE"/>
</linearGradient>
<linearGradient id="paint2_linear_2_57" x1="64.9147" y1="61.6691" x2="64.9147" y2="89.1234" gradientUnits="userSpaceOnUse">
<stop stop-color="#4261E8"/>
<stop offset="1" stop-color="#7F98FE"/>
</linearGradient>
<linearGradient id="paint3_linear_2_57" x1="102.753" y1="62.5502" x2="102.753" y2="97.1536" gradientUnits="userSpaceOnUse">
<stop stop-color="#4261E8"/>
<stop offset="1" stop-color="#7F98FE"/>
</linearGradient>
</defs>
</svg>
